<svg width="113" height="47" viewBox="0 0 113 47" fill="none" xmlns="http://www.w3.org/2000/svg">
<path d="M56.1674 21.6593C55.6444 21.6593 55.1541 21.3363 54.9659 20.8148C53.997 18.1378 51.4933 18.3763 51.2119 18.4118C50.5141 18.5141 49.8696 18.0281 49.7689 17.3289C49.6682 16.6296 50.157 15.9807 50.8563 15.88C52.5067 15.6415 55.9763 16.1763 57.3511 19.8904C57.5911 20.5393 57.3022 21.2918 56.6622 21.5585C56.5007 21.6267 56.3333 21.6578 56.1689 21.6578L56.1674 21.6593Z" fill="#83A31E"/>
<path d="M51.4578 7.62962C43.4504 7.53036 36.8978 14.1822 36.8978 22.1896V22.4711V32.4844V45.0444C36.8978 45.7111 37.7467 45.9941 38.1467 45.4607L45.7185 35.3674L45.7096 35.36C46.4652 35.6933 47.2311 35.9615 48.0148 36.1556C49.0385 36.4089 50.0933 36.5378 51.1941 36.5378C59.2341 36.5378 65.6118 30.0444 65.6118 22.0044C65.6118 13.9644 59.4104 7.72592 51.4592 7.62814L51.4578 7.62962ZM51.2696 30.2015C46.7867 30.2015 43.2296 26.4904 43.2296 22.0059C43.2296 17.5215 46.7867 13.9674 51.2696 13.9674C55.7526 13.9674 59.4652 17.677 59.4652 22.0059C59.4652 26.3348 55.7526 30.2015 51.2696 30.2015Z" fill="#83A31E"/>
<path d="M93.1185 36.5007V16.3852C93.1185 12.9081 95.9363 10.0904 99.4133 10.0904V30.2059C99.4133 33.683 96.5956 36.5007 93.1185 36.5007Z" fill="#1C1C1C"/>
<path d="M96.3422 1.69481C98.4489 1.69481 100.181 3.42666 100.181 5.53333C100.181 7.91259 98.3778 9.63703 96.1289 9.52C94.1081 9.41481 92.4607 7.76889 92.3555 5.74814C92.2385 3.49777 93.9615 1.69481 96.3422 1.69481Z" fill="#1C1C1C"/>
<path d="M102.239 28.5155V6.55851C102.239 2.99703 105.126 0.111099 108.686 0.111099V9.01629H109.994C111.563 9.01629 112.836 10.2874 112.836 11.8578C112.836 13.4267 111.564 14.6992 109.994 14.6992H108.686V28.517C108.686 30.0533 109.302 30.8207 110.99 30.8207C112.009 30.8207 112.834 31.6474 112.834 32.6652V34.0444C112.834 35.4015 111.733 36.5022 110.376 36.5022C106.079 36.5022 102.237 34.0444 102.237 28.517L102.239 28.5155Z" fill="#1C1C1C"/>
<path d="M11.3659 30.2059H6.29482V0C2.81778 0 0 2.81778 0 6.29482V33.8074C0 35.2948 1.20593 36.5007 2.69333 36.5007H6.29482H11.437C13.2696 36.5007 14.7363 34.9348 14.5719 33.0681C14.4282 31.4341 13.0074 30.2074 11.3659 30.2074V30.2059Z" fill="#1C1C1C"/>
<path d="M77.3985 7.62816C72.1452 7.56445 67.5185 10.4059 64.9585 14.6296C66.157 16.8696 66.7941 19.3896 66.7941 22.0059C66.7941 25.9259 65.397 29.6178 62.843 32.4948V46.8652C66.2548 46.8652 69.0222 44.0993 69.0222 40.6859V33.9111C71.597 35.6119 74.203 36.5393 77.1393 36.5393C85.1793 36.5393 91.557 30.0459 91.557 22.0059C91.557 13.9659 85.3526 7.72445 77.3985 7.62963V7.62816ZM77.2163 30.2015C72.7333 30.2015 69.1763 26.4904 69.1763 22.0059C69.1763 17.5215 72.7333 13.9674 77.2163 13.9674C81.6993 13.9674 85.4118 17.677 85.4118 22.0059C85.4118 26.3348 81.6993 30.2015 77.2163 30.2015Z" fill="#1C1C1C"/>
<path d="M35.7126 22.4711V22.1896C35.7126 19.3615 36.4593 16.6385 37.8578 14.2459V8.55554C34.3823 8.55554 31.5645 11.3733 31.5645 14.8489V24.5244C31.5645 27.7481 28.9526 30.357 25.7289 30.357C22.5052 30.357 20.0474 27.7481 20.0474 24.5244V15.003C20.0474 11.4415 17.16 8.55554 13.6 8.55554V24.3704C13.6 31.1274 19.1274 36.5007 25.7289 36.5007C29.8963 36.5007 33.5334 34.4548 35.7126 31.3037V22.4711Z" fill="#1C1C1C"/>
</svg>
